<mxfile host="app.diagrams.net" modified="2023-12-10T16:30:43.773Z" agent="Mozilla/5.0 (Windows NT 10.0; Win64; x64) AppleWebKit/537.36 (KHTML, like Gecko) Chrome/120.0.0.0 Safari/537.36" etag="tw3nR4xpe3ZOmAZjQH8g" version="22.1.7" type="github">
  <diagram id="C5RBs43oDa-KdzZeNtuy" name="Page-1">
    <mxGraphModel dx="1400" dy="755" grid="1" gridSize="10" guides="1" tooltips="1" connect="1" arrows="1" fold="1" page="1" pageScale="1" pageWidth="827" pageHeight="1169" math="0" shadow="0">
      <root>
        <mxCell id="WIyWlLk6GJQsqaUBKTNV-0" />
        <mxCell id="WIyWlLk6GJQsqaUBKTNV-1" parent="WIyWlLk6GJQsqaUBKTNV-0" />
        <mxCell id="Uc2ZC4XFaOgmSLlMXt0B-16" style="edgeStyle=orthogonalEdgeStyle;rounded=0;orthogonalLoop=1;jettySize=auto;html=1;exitX=0.5;exitY=1;exitDx=0;exitDy=0;entryX=0.5;entryY=0;entryDx=0;entryDy=0;" edge="1" parent="WIyWlLk6GJQsqaUBKTNV-1" source="Uc2ZC4XFaOgmSLlMXt0B-1" target="Uc2ZC4XFaOgmSLlMXt0B-15">
          <mxGeometry relative="1" as="geometry" />
        </mxCell>
        <mxCell id="Uc2ZC4XFaOgmSLlMXt0B-1" value="" style="rounded=0;whiteSpace=wrap;html=1;" vertex="1" parent="WIyWlLk6GJQsqaUBKTNV-1">
          <mxGeometry x="354" y="110" width="120" height="60" as="geometry" />
        </mxCell>
        <mxCell id="Uc2ZC4XFaOgmSLlMXt0B-41" style="edgeStyle=orthogonalEdgeStyle;rounded=0;orthogonalLoop=1;jettySize=auto;html=1;exitX=0.5;exitY=1;exitDx=0;exitDy=0;entryX=0.5;entryY=0;entryDx=0;entryDy=0;" edge="1" parent="WIyWlLk6GJQsqaUBKTNV-1" source="Uc2ZC4XFaOgmSLlMXt0B-5" target="Uc2ZC4XFaOgmSLlMXt0B-23">
          <mxGeometry relative="1" as="geometry" />
        </mxCell>
        <mxCell id="Uc2ZC4XFaOgmSLlMXt0B-5" value="" style="rounded=0;whiteSpace=wrap;html=1;" vertex="1" parent="WIyWlLk6GJQsqaUBKTNV-1">
          <mxGeometry x="354" y="360" width="120" height="60" as="geometry" />
        </mxCell>
        <mxCell id="Uc2ZC4XFaOgmSLlMXt0B-7" value="" style="endArrow=classic;html=1;rounded=0;entryX=0.5;entryY=0;entryDx=0;entryDy=0;" edge="1" parent="WIyWlLk6GJQsqaUBKTNV-1" target="Uc2ZC4XFaOgmSLlMXt0B-1">
          <mxGeometry width="50" height="50" relative="1" as="geometry">
            <mxPoint x="414" y="40" as="sourcePoint" />
            <mxPoint x="420" y="50" as="targetPoint" />
          </mxGeometry>
        </mxCell>
        <mxCell id="Uc2ZC4XFaOgmSLlMXt0B-8" value="" style="endArrow=classic;html=1;rounded=0;entryX=0.5;entryY=0;entryDx=0;entryDy=0;" edge="1" parent="WIyWlLk6GJQsqaUBKTNV-1">
          <mxGeometry width="50" height="50" relative="1" as="geometry">
            <mxPoint x="413.76" y="40" as="sourcePoint" />
            <mxPoint x="413.76" y="110" as="targetPoint" />
          </mxGeometry>
        </mxCell>
        <mxCell id="Uc2ZC4XFaOgmSLlMXt0B-9" value="" style="endArrow=classic;html=1;rounded=0;entryX=0.5;entryY=0;entryDx=0;entryDy=0;" edge="1" parent="WIyWlLk6GJQsqaUBKTNV-1">
          <mxGeometry width="50" height="50" relative="1" as="geometry">
            <mxPoint x="414" y="40" as="sourcePoint" />
            <mxPoint x="413.76" y="110" as="targetPoint" />
          </mxGeometry>
        </mxCell>
        <mxCell id="Uc2ZC4XFaOgmSLlMXt0B-10" value="reset" style="text;html=1;align=center;verticalAlign=middle;resizable=0;points=[];autosize=1;strokeColor=none;fillColor=none;" vertex="1" parent="WIyWlLk6GJQsqaUBKTNV-1">
          <mxGeometry x="389" y="8" width="50" height="30" as="geometry" />
        </mxCell>
        <mxCell id="Uc2ZC4XFaOgmSLlMXt0B-12" value="IDLE" style="text;html=1;align=center;verticalAlign=middle;resizable=0;points=[];autosize=1;strokeColor=none;fillColor=none;" vertex="1" parent="WIyWlLk6GJQsqaUBKTNV-1">
          <mxGeometry x="354" y="80" width="50" height="30" as="geometry" />
        </mxCell>
        <mxCell id="Uc2ZC4XFaOgmSLlMXt0B-13" value="000" style="text;html=1;align=center;verticalAlign=middle;resizable=0;points=[];autosize=1;strokeColor=none;fillColor=none;" vertex="1" parent="WIyWlLk6GJQsqaUBKTNV-1">
          <mxGeometry x="434" y="80" width="40" height="30" as="geometry" />
        </mxCell>
        <mxCell id="Uc2ZC4XFaOgmSLlMXt0B-17" style="edgeStyle=orthogonalEdgeStyle;rounded=0;orthogonalLoop=1;jettySize=auto;html=1;exitX=0;exitY=0.5;exitDx=0;exitDy=0;" edge="1" parent="WIyWlLk6GJQsqaUBKTNV-1" source="Uc2ZC4XFaOgmSLlMXt0B-15">
          <mxGeometry relative="1" as="geometry">
            <mxPoint x="414" y="70" as="targetPoint" />
            <Array as="points">
              <mxPoint x="290" y="240" />
              <mxPoint x="290" y="70" />
            </Array>
          </mxGeometry>
        </mxCell>
        <mxCell id="Uc2ZC4XFaOgmSLlMXt0B-18" style="edgeStyle=orthogonalEdgeStyle;rounded=0;orthogonalLoop=1;jettySize=auto;html=1;exitX=1;exitY=0.5;exitDx=0;exitDy=0;entryX=0.5;entryY=0;entryDx=0;entryDy=0;" edge="1" parent="WIyWlLk6GJQsqaUBKTNV-1" source="Uc2ZC4XFaOgmSLlMXt0B-15" target="Uc2ZC4XFaOgmSLlMXt0B-5">
          <mxGeometry relative="1" as="geometry" />
        </mxCell>
        <mxCell id="Uc2ZC4XFaOgmSLlMXt0B-15" value="" style="rhombus;whiteSpace=wrap;html=1;" vertex="1" parent="WIyWlLk6GJQsqaUBKTNV-1">
          <mxGeometry x="353" y="200" width="121" height="80" as="geometry" />
        </mxCell>
        <mxCell id="Uc2ZC4XFaOgmSLlMXt0B-19" value="S1" style="text;html=1;align=center;verticalAlign=middle;resizable=0;points=[];autosize=1;strokeColor=none;fillColor=none;" vertex="1" parent="WIyWlLk6GJQsqaUBKTNV-1">
          <mxGeometry x="359" y="330" width="40" height="30" as="geometry" />
        </mxCell>
        <mxCell id="Uc2ZC4XFaOgmSLlMXt0B-20" value="001" style="text;html=1;align=center;verticalAlign=middle;resizable=0;points=[];autosize=1;strokeColor=none;fillColor=none;" vertex="1" parent="WIyWlLk6GJQsqaUBKTNV-1">
          <mxGeometry x="434" y="330" width="40" height="30" as="geometry" />
        </mxCell>
        <mxCell id="Uc2ZC4XFaOgmSLlMXt0B-43" style="edgeStyle=orthogonalEdgeStyle;rounded=0;orthogonalLoop=1;jettySize=auto;html=1;exitX=0.5;exitY=1;exitDx=0;exitDy=0;entryX=0.5;entryY=0;entryDx=0;entryDy=0;" edge="1" parent="WIyWlLk6GJQsqaUBKTNV-1" source="Uc2ZC4XFaOgmSLlMXt0B-21" target="Uc2ZC4XFaOgmSLlMXt0B-28">
          <mxGeometry relative="1" as="geometry" />
        </mxCell>
        <mxCell id="Uc2ZC4XFaOgmSLlMXt0B-21" value="" style="rounded=0;whiteSpace=wrap;html=1;" vertex="1" parent="WIyWlLk6GJQsqaUBKTNV-1">
          <mxGeometry x="354" y="610" width="120" height="60" as="geometry" />
        </mxCell>
        <mxCell id="Uc2ZC4XFaOgmSLlMXt0B-22" style="edgeStyle=orthogonalEdgeStyle;rounded=0;orthogonalLoop=1;jettySize=auto;html=1;exitX=1;exitY=0.5;exitDx=0;exitDy=0;entryX=0.5;entryY=0;entryDx=0;entryDy=0;" edge="1" parent="WIyWlLk6GJQsqaUBKTNV-1" source="Uc2ZC4XFaOgmSLlMXt0B-23" target="Uc2ZC4XFaOgmSLlMXt0B-21">
          <mxGeometry relative="1" as="geometry" />
        </mxCell>
        <mxCell id="Uc2ZC4XFaOgmSLlMXt0B-42" style="edgeStyle=orthogonalEdgeStyle;rounded=0;orthogonalLoop=1;jettySize=auto;html=1;exitX=0;exitY=0.5;exitDx=0;exitDy=0;" edge="1" parent="WIyWlLk6GJQsqaUBKTNV-1" source="Uc2ZC4XFaOgmSLlMXt0B-23">
          <mxGeometry relative="1" as="geometry">
            <mxPoint x="290" y="240" as="targetPoint" />
          </mxGeometry>
        </mxCell>
        <mxCell id="Uc2ZC4XFaOgmSLlMXt0B-23" value="" style="rhombus;whiteSpace=wrap;html=1;" vertex="1" parent="WIyWlLk6GJQsqaUBKTNV-1">
          <mxGeometry x="353" y="450" width="121" height="80" as="geometry" />
        </mxCell>
        <mxCell id="Uc2ZC4XFaOgmSLlMXt0B-24" value="S2" style="text;html=1;align=center;verticalAlign=middle;resizable=0;points=[];autosize=1;strokeColor=none;fillColor=none;" vertex="1" parent="WIyWlLk6GJQsqaUBKTNV-1">
          <mxGeometry x="359" y="580" width="40" height="30" as="geometry" />
        </mxCell>
        <mxCell id="Uc2ZC4XFaOgmSLlMXt0B-25" value="010" style="text;html=1;align=center;verticalAlign=middle;resizable=0;points=[];autosize=1;strokeColor=none;fillColor=none;" vertex="1" parent="WIyWlLk6GJQsqaUBKTNV-1">
          <mxGeometry x="434" y="580" width="40" height="30" as="geometry" />
        </mxCell>
        <mxCell id="Uc2ZC4XFaOgmSLlMXt0B-45" style="edgeStyle=orthogonalEdgeStyle;rounded=0;orthogonalLoop=1;jettySize=auto;html=1;exitX=0.5;exitY=1;exitDx=0;exitDy=0;entryX=0.5;entryY=0;entryDx=0;entryDy=0;" edge="1" parent="WIyWlLk6GJQsqaUBKTNV-1" source="Uc2ZC4XFaOgmSLlMXt0B-26" target="Uc2ZC4XFaOgmSLlMXt0B-33">
          <mxGeometry relative="1" as="geometry" />
        </mxCell>
        <mxCell id="Uc2ZC4XFaOgmSLlMXt0B-26" value="" style="rounded=0;whiteSpace=wrap;html=1;" vertex="1" parent="WIyWlLk6GJQsqaUBKTNV-1">
          <mxGeometry x="354" y="870" width="120" height="60" as="geometry" />
        </mxCell>
        <mxCell id="Uc2ZC4XFaOgmSLlMXt0B-27" style="edgeStyle=orthogonalEdgeStyle;rounded=0;orthogonalLoop=1;jettySize=auto;html=1;exitX=1;exitY=0.5;exitDx=0;exitDy=0;entryX=0.5;entryY=0;entryDx=0;entryDy=0;" edge="1" parent="WIyWlLk6GJQsqaUBKTNV-1" source="Uc2ZC4XFaOgmSLlMXt0B-28" target="Uc2ZC4XFaOgmSLlMXt0B-26">
          <mxGeometry relative="1" as="geometry" />
        </mxCell>
        <mxCell id="Uc2ZC4XFaOgmSLlMXt0B-44" style="edgeStyle=orthogonalEdgeStyle;rounded=0;orthogonalLoop=1;jettySize=auto;html=1;exitX=0;exitY=0.5;exitDx=0;exitDy=0;" edge="1" parent="WIyWlLk6GJQsqaUBKTNV-1" source="Uc2ZC4XFaOgmSLlMXt0B-28">
          <mxGeometry relative="1" as="geometry">
            <mxPoint x="290" y="490" as="targetPoint" />
          </mxGeometry>
        </mxCell>
        <mxCell id="Uc2ZC4XFaOgmSLlMXt0B-28" value="" style="rhombus;whiteSpace=wrap;html=1;" vertex="1" parent="WIyWlLk6GJQsqaUBKTNV-1">
          <mxGeometry x="353" y="710" width="121" height="80" as="geometry" />
        </mxCell>
        <mxCell id="Uc2ZC4XFaOgmSLlMXt0B-29" value="S3" style="text;html=1;align=center;verticalAlign=middle;resizable=0;points=[];autosize=1;strokeColor=none;fillColor=none;" vertex="1" parent="WIyWlLk6GJQsqaUBKTNV-1">
          <mxGeometry x="359" y="840" width="40" height="30" as="geometry" />
        </mxCell>
        <mxCell id="Uc2ZC4XFaOgmSLlMXt0B-30" value="011" style="text;html=1;align=center;verticalAlign=middle;resizable=0;points=[];autosize=1;strokeColor=none;fillColor=none;" vertex="1" parent="WIyWlLk6GJQsqaUBKTNV-1">
          <mxGeometry x="434" y="840" width="40" height="30" as="geometry" />
        </mxCell>
        <mxCell id="Uc2ZC4XFaOgmSLlMXt0B-48" style="edgeStyle=orthogonalEdgeStyle;rounded=0;orthogonalLoop=1;jettySize=auto;html=1;exitX=0.5;exitY=1;exitDx=0;exitDy=0;entryX=0.5;entryY=0;entryDx=0;entryDy=0;" edge="1" parent="WIyWlLk6GJQsqaUBKTNV-1" source="Uc2ZC4XFaOgmSLlMXt0B-31" target="Uc2ZC4XFaOgmSLlMXt0B-38">
          <mxGeometry relative="1" as="geometry" />
        </mxCell>
        <mxCell id="Uc2ZC4XFaOgmSLlMXt0B-31" value="" style="rounded=0;whiteSpace=wrap;html=1;" vertex="1" parent="WIyWlLk6GJQsqaUBKTNV-1">
          <mxGeometry x="354" y="1160" width="120" height="60" as="geometry" />
        </mxCell>
        <mxCell id="Uc2ZC4XFaOgmSLlMXt0B-32" style="edgeStyle=orthogonalEdgeStyle;rounded=0;orthogonalLoop=1;jettySize=auto;html=1;exitX=1;exitY=0.5;exitDx=0;exitDy=0;entryX=0.5;entryY=0;entryDx=0;entryDy=0;" edge="1" parent="WIyWlLk6GJQsqaUBKTNV-1" source="Uc2ZC4XFaOgmSLlMXt0B-33" target="Uc2ZC4XFaOgmSLlMXt0B-31">
          <mxGeometry relative="1" as="geometry" />
        </mxCell>
        <mxCell id="Uc2ZC4XFaOgmSLlMXt0B-46" style="edgeStyle=orthogonalEdgeStyle;rounded=0;orthogonalLoop=1;jettySize=auto;html=1;exitX=0;exitY=0.5;exitDx=0;exitDy=0;" edge="1" parent="WIyWlLk6GJQsqaUBKTNV-1" source="Uc2ZC4XFaOgmSLlMXt0B-33">
          <mxGeometry relative="1" as="geometry">
            <mxPoint x="290" y="750" as="targetPoint" />
          </mxGeometry>
        </mxCell>
        <mxCell id="Uc2ZC4XFaOgmSLlMXt0B-33" value="" style="rhombus;whiteSpace=wrap;html=1;" vertex="1" parent="WIyWlLk6GJQsqaUBKTNV-1">
          <mxGeometry x="353" y="1000" width="121" height="80" as="geometry" />
        </mxCell>
        <mxCell id="Uc2ZC4XFaOgmSLlMXt0B-34" value="S4" style="text;html=1;align=center;verticalAlign=middle;resizable=0;points=[];autosize=1;strokeColor=none;fillColor=none;" vertex="1" parent="WIyWlLk6GJQsqaUBKTNV-1">
          <mxGeometry x="359" y="1130" width="40" height="30" as="geometry" />
        </mxCell>
        <mxCell id="Uc2ZC4XFaOgmSLlMXt0B-35" value="100" style="text;html=1;align=center;verticalAlign=middle;resizable=0;points=[];autosize=1;strokeColor=none;fillColor=none;" vertex="1" parent="WIyWlLk6GJQsqaUBKTNV-1">
          <mxGeometry x="434" y="1130" width="40" height="30" as="geometry" />
        </mxCell>
        <mxCell id="Uc2ZC4XFaOgmSLlMXt0B-54" style="edgeStyle=orthogonalEdgeStyle;rounded=0;orthogonalLoop=1;jettySize=auto;html=1;exitX=0.5;exitY=1;exitDx=0;exitDy=0;entryX=0.5;entryY=0;entryDx=0;entryDy=0;" edge="1" parent="WIyWlLk6GJQsqaUBKTNV-1" source="Uc2ZC4XFaOgmSLlMXt0B-36" target="Uc2ZC4XFaOgmSLlMXt0B-51">
          <mxGeometry relative="1" as="geometry" />
        </mxCell>
        <mxCell id="Uc2ZC4XFaOgmSLlMXt0B-36" value="" style="rounded=0;whiteSpace=wrap;html=1;" vertex="1" parent="WIyWlLk6GJQsqaUBKTNV-1">
          <mxGeometry x="354.5" y="1450" width="120" height="60" as="geometry" />
        </mxCell>
        <mxCell id="Uc2ZC4XFaOgmSLlMXt0B-37" style="edgeStyle=orthogonalEdgeStyle;rounded=0;orthogonalLoop=1;jettySize=auto;html=1;exitX=1;exitY=0.5;exitDx=0;exitDy=0;entryX=0.5;entryY=0;entryDx=0;entryDy=0;" edge="1" parent="WIyWlLk6GJQsqaUBKTNV-1" source="Uc2ZC4XFaOgmSLlMXt0B-38" target="Uc2ZC4XFaOgmSLlMXt0B-36">
          <mxGeometry relative="1" as="geometry" />
        </mxCell>
        <mxCell id="Uc2ZC4XFaOgmSLlMXt0B-47" style="edgeStyle=orthogonalEdgeStyle;rounded=0;orthogonalLoop=1;jettySize=auto;html=1;exitX=0;exitY=0.5;exitDx=0;exitDy=0;" edge="1" parent="WIyWlLk6GJQsqaUBKTNV-1" source="Uc2ZC4XFaOgmSLlMXt0B-38">
          <mxGeometry relative="1" as="geometry">
            <mxPoint x="290" y="1040" as="targetPoint" />
          </mxGeometry>
        </mxCell>
        <mxCell id="Uc2ZC4XFaOgmSLlMXt0B-38" value="" style="rhombus;whiteSpace=wrap;html=1;" vertex="1" parent="WIyWlLk6GJQsqaUBKTNV-1">
          <mxGeometry x="353.5" y="1290" width="121" height="80" as="geometry" />
        </mxCell>
        <mxCell id="Uc2ZC4XFaOgmSLlMXt0B-39" value="S5" style="text;html=1;align=center;verticalAlign=middle;resizable=0;points=[];autosize=1;strokeColor=none;fillColor=none;" vertex="1" parent="WIyWlLk6GJQsqaUBKTNV-1">
          <mxGeometry x="349" y="1420" width="40" height="30" as="geometry" />
        </mxCell>
        <mxCell id="Uc2ZC4XFaOgmSLlMXt0B-40" value="101" style="text;html=1;align=center;verticalAlign=middle;resizable=0;points=[];autosize=1;strokeColor=none;fillColor=none;" vertex="1" parent="WIyWlLk6GJQsqaUBKTNV-1">
          <mxGeometry x="424" y="1420" width="40" height="30" as="geometry" />
        </mxCell>
        <mxCell id="Uc2ZC4XFaOgmSLlMXt0B-55" style="edgeStyle=orthogonalEdgeStyle;rounded=0;orthogonalLoop=1;jettySize=auto;html=1;exitX=0;exitY=0.5;exitDx=0;exitDy=0;" edge="1" parent="WIyWlLk6GJQsqaUBKTNV-1" source="Uc2ZC4XFaOgmSLlMXt0B-51">
          <mxGeometry relative="1" as="geometry">
            <mxPoint x="290" y="1330" as="targetPoint" />
          </mxGeometry>
        </mxCell>
        <mxCell id="Uc2ZC4XFaOgmSLlMXt0B-56" style="edgeStyle=orthogonalEdgeStyle;rounded=0;orthogonalLoop=1;jettySize=auto;html=1;exitX=1;exitY=0.5;exitDx=0;exitDy=0;" edge="1" parent="WIyWlLk6GJQsqaUBKTNV-1" source="Uc2ZC4XFaOgmSLlMXt0B-51">
          <mxGeometry relative="1" as="geometry">
            <mxPoint x="290" y="1610" as="targetPoint" />
            <Array as="points">
              <mxPoint x="495" y="1610" />
              <mxPoint x="495" y="1670" />
              <mxPoint x="290" y="1670" />
            </Array>
          </mxGeometry>
        </mxCell>
        <mxCell id="Uc2ZC4XFaOgmSLlMXt0B-51" value="" style="rhombus;whiteSpace=wrap;html=1;" vertex="1" parent="WIyWlLk6GJQsqaUBKTNV-1">
          <mxGeometry x="354.5" y="1570" width="121" height="80" as="geometry" />
        </mxCell>
      </root>
    </mxGraphModel>
  </diagram>
</mxfile>
